<svg xmlns="http://www.w3.org/2000/svg" viewBox="0 0 512 512">
  <defs>
    <linearGradient id="g" x1="0" y1="0" x2="1" y2="1">
      <stop offset="0%" stop-color="#ff2e93"/>
      <stop offset="50%" stop-color="#7c3aed"/>
      <stop offset="100%" stop-color="#22d3ee"/>
    </linearGradient>
    <linearGradient id="paper" x1="0" y1="0" x2="0" y2="1">
      <stop offset="0%" stop-color="#ffffff"/>
      <stop offset="100%" stop-color="#e5e7eb"/>
    </linearGradient>
  </defs>
  <rect width="512" height="512" rx="96" fill="#0f0322"/>
  <rect width="512" height="512" rx="96" fill="url(#g)" opacity="0.18"/>
  <g transform="translate(112 84)">
    <path d="M0 24 A24 24 0 0 1 24 0 H200 L288 88 V320 A24 24 0 0 1 264 344 H24 A24 24 0 0 1 0 320 Z"
          fill="url(#paper)"/>
    <path d="M200 0 V64 A24 24 0 0 0 224 88 H288 Z" fill="#cbd5e1"/>
    <g font-family="Inter, system-ui, sans-serif" font-weight="800"
       fill="url(#g)" text-anchor="middle">
      <text x="144" y="220" font-size="120">W</text>
    </g>
  </g>
  <g transform="translate(312 312)">
    <circle r="92" fill="#0f0322"/>
    <circle r="92" fill="url(#g)" opacity="0.85"/>
    <path d="M-40 -10 L-10 30 L48 -32" stroke="#ffffff" stroke-width="22"
          stroke-linecap="round" stroke-linejoin="round" fill="none"/>
  </g>
</svg>
